<?xml version="1.0" encoding="UTF-8" standalone="no"?>
<!DOCTYPE svg PUBLIC "-//W3C//DTD SVG 1.1//EN" "http://www.w3.org/Graphics/SVG/1.1/DTD/svg11.dtd">
<svg width="100%" height="100%" viewBox="0 0 134 19" version="1.1" xmlns="http://www.w3.org/2000/svg" xmlns:xlink="http://www.w3.org/1999/xlink" xml:space="preserve" xmlns:serif="http://www.serif.com/" style="fill-rule:evenodd;clip-rule:evenodd;stroke-linejoin:round;stroke-miterlimit:2;">
    <g transform="matrix(1,0,0,1,119.216,0.8831)">
        <path d="M0,16.921C0,17.258 0.26,17.544 0.623,17.544L2.907,17.544C3.244,17.544 3.53,17.258 3.53,16.921L3.53,9.005L10.303,17.363C10.355,17.441 10.511,17.544 10.771,17.544L13.6,17.544C14.119,17.544 14.327,16.973 14.067,16.636L6.8,7.941L13.573,0.311C13.911,-0.079 13.652,-0.623 13.158,-0.623L10.563,-0.623C10.33,-0.623 10.174,-0.494 10.07,-0.364L3.53,7.006L3.53,0C3.53,-0.338 3.244,-0.623 2.907,-0.623L0.623,-0.623C0.26,-0.623 0,-0.338 0,0L0,16.921Z" style="fill:rgb(229,30,44);fill-rule:nonzero;"/>
    </g>
    <g transform="matrix(1,0,0,1,100.368,9.318)">
        <path d="M0,0.051C0,5.242 4.179,9.369 9.37,9.369C11.679,9.369 13.911,8.564 15.676,6.851C15.858,6.67 15.909,6.332 15.702,6.151L14.093,4.489C13.937,4.334 13.652,4.307 13.444,4.489C12.354,5.372 11.03,5.969 9.473,5.969C6.151,5.969 3.659,3.218 3.659,-0.027C3.659,-3.297 6.125,-6.074 9.447,-6.074C10.9,-6.074 12.354,-5.503 13.444,-4.543C13.652,-4.335 13.911,-4.335 14.093,-4.543L15.676,-6.178C15.884,-6.385 15.884,-6.697 15.65,-6.905C13.885,-8.488 11.99,-9.318 9.37,-9.318C4.179,-9.318 0,-5.139 0,0.051" style="fill:rgb(229,30,44);fill-rule:nonzero;"/>
    </g>
    <g transform="matrix(1,0,0,1,88.7362,3.3744)">
        <path d="M0,11.938C-3.27,11.938 -5.943,9.265 -5.943,5.995C-5.943,2.725 -3.27,0 0,0C3.271,0 5.97,2.725 5.97,5.995C5.97,9.265 3.271,11.938 0,11.938M0,-3.374C-5.191,-3.374 -9.317,0.804 -9.317,5.995C-9.317,11.186 -5.191,15.312 0,15.312C5.191,15.312 9.343,11.186 9.343,5.995C9.343,0.804 5.191,-3.374 0,-3.374" style="fill:rgb(229,30,44);fill-rule:nonzero;"/>
    </g>
    <g transform="matrix(1,0,0,1,70.6755,0.753)">
        <path d="M0,17.181C0,17.441 0.233,17.674 0.493,17.674L2.907,17.674C3.166,17.674 3.4,17.441 3.4,17.181L3.4,2.621L7.371,2.621C7.656,2.621 7.864,2.388 7.864,2.128L7.864,0C7.864,-0.26 7.656,-0.493 7.371,-0.493L-3.971,-0.493C-4.256,-0.493 -4.464,-0.26 -4.464,0L-4.464,2.128C-4.464,2.388 -4.256,2.621 -3.971,2.621L0,2.621L0,17.181Z" style="fill:rgb(229,30,44);fill-rule:nonzero;"/>
    </g>
    <g transform="matrix(1,0,0,1,52.9517,2.0245)">
        <path d="M0,14.638C0.519,15.131 2.44,16.662 5.71,16.662C9.37,16.662 11.679,14.197 11.679,11.523C11.679,8.176 8.772,6.67 6.255,5.658C4.153,4.802 3.192,3.971 3.192,2.751C3.192,1.921 3.997,0.934 5.476,0.934C6.904,0.934 8.876,2.232 9.084,2.362C9.395,2.57 9.785,2.362 9.992,2.05L10.979,0.571C11.16,0.311 11.082,-0.13 10.823,-0.286C10.304,-0.675 8.28,-2.024 5.632,-2.024C1.505,-2.024 -0.208,0.649 -0.208,2.958C-0.208,6.021 2.232,7.578 4.672,8.565C6.852,9.447 7.968,10.356 7.968,11.679C7.968,12.795 6.956,13.678 5.606,13.678C3.919,13.678 1.817,12.146 1.687,12.068C1.454,11.887 1.012,11.887 0.805,12.25L-0.13,13.859C-0.363,14.275 -0.233,14.405 0,14.638" style="fill:rgb(229,30,44);fill-rule:nonzero;"/>
    </g>
    <g transform="matrix(1,0,0,1,42.9832,0.753)">
        <path d="M0,17.181C0,17.441 0.233,17.674 0.493,17.674L2.907,17.674C3.166,17.674 3.4,17.441 3.4,17.181L3.4,2.621L7.371,2.621C7.656,2.621 7.864,2.388 7.864,2.128L7.864,0C7.864,-0.26 7.656,-0.493 7.371,-0.493L-3.971,-0.493C-4.256,-0.493 -4.464,-0.26 -4.464,0L-4.464,2.128C-4.464,2.388 -4.256,2.621 -3.971,2.621L0,2.621L0,17.181Z" style="fill:rgb(229,30,44);fill-rule:nonzero;"/>
    </g>
    <g transform="matrix(1,0,0,1,24.8883,0.753)">
        <path d="M0,17.181C0,17.441 0.208,17.674 0.493,17.674L11.056,17.674C11.342,17.674 11.549,17.441 11.549,17.181L11.549,15.053C11.549,14.793 11.342,14.56 11.056,14.56L3.374,14.56L3.374,10.018L9.785,10.018C10.044,10.018 10.278,9.81 10.278,9.525L10.278,7.37C10.278,7.111 10.044,6.878 9.785,6.878L3.374,6.878L3.374,2.621L11.056,2.621C11.342,2.621 11.549,2.388 11.549,2.128L11.549,0C11.549,-0.26 11.342,-0.493 11.056,-0.493L0.493,-0.493C0.208,-0.493 0,-0.26 0,0L0,17.181Z" style="fill:rgb(229,30,44);fill-rule:nonzero;"/>
    </g>
    <g transform="matrix(1,0,0,1,5.2037,18.7247)">
        <path d="M0,-18.465C0.69,-18.465 1.37,-18.141 1.799,-17.535L11.548,-3.772C12.251,-2.779 12.016,-1.405 11.024,-0.702C10.03,0 8.657,-0.235 7.954,-1.227L-1.795,-14.99C-2.498,-15.983 -2.263,-17.357 -1.271,-18.06C-0.884,-18.333 -0.44,-18.465 0,-18.465" style="fill:rgb(239,237,232);fill-rule:nonzero;"/>
    </g>
    <g transform="matrix(1,0,0,1,20.161,1.443)">
        <path d="M0,15.801L0,-0.579C0,-0.749 -0.071,-0.904 -0.184,-1.013C-0.293,-1.118 -0.441,-1.183 -0.604,-1.183L-3.891,-1.183C-4.058,-1.183 -4.209,-1.116 -4.319,-1.006C-4.428,-0.897 -4.496,-0.746 -4.496,-0.579L-4.496,16.04C-4.496,16.834 -5.216,16.983 -5.219,16.984L-1.183,16.984C-0.816,16.984 -0.487,16.816 -0.27,16.553C-0.101,16.349 0,16.087 0,15.801M-14.942,-1.183L-18.978,-1.183C-19.346,-1.183 -19.674,-1.015 -19.891,-0.753C-20.06,-0.548 -20.161,-0.286 -20.161,-0L-20.161,16.38C-20.161,16.55 -20.091,16.704 -19.977,16.814C-19.869,16.919 -19.72,16.984 -19.557,16.984L-16.27,16.984C-16.103,16.984 -15.952,16.916 -15.843,16.807C-15.733,16.697 -15.666,16.547 -15.666,16.38L-15.666,-0.24C-15.666,-1.033 -14.946,-1.182 -14.942,-1.183" style="fill:rgb(229,30,44);fill-rule:nonzero;"/>
    </g>
</svg>
